<mxfile host="Electron" modified="2025-03-05T13:49:22.986Z" agent="Mozilla/5.0 (Macintosh; Intel Mac OS X 10_15_7) AppleWebKit/537.36 (KHTML, like Gecko) draw.io/21.6.1 Chrome/112.0.5615.204 Electron/24.6.1 Safari/537.36" etag="EF8F_QvzEdHfwWJCEOXG" version="21.6.1" type="device">
  <diagram name="Page-1" id="ydgUN3jclBdSU57LJY2e">
    <mxGraphModel dx="1230" dy="1676" grid="1" gridSize="10" guides="1" tooltips="1" connect="1" arrows="1" fold="1" page="1" pageScale="1" pageWidth="1169" pageHeight="827" math="0" shadow="0">
      <root>
        <mxCell id="0" />
        <mxCell id="1" parent="0" />
        <mxCell id="gs30xLeirJ7YLoKCSh7--33" value="&lt;font style=&quot;font-size: 25px;&quot;&gt;Compilation Workflow&lt;/font&gt;" style="rounded=1;whiteSpace=wrap;html=1;align=center;verticalAlign=top;" parent="1" vertex="1">
          <mxGeometry x="230" y="-260" width="1120" height="780" as="geometry" />
        </mxCell>
        <mxCell id="gs30xLeirJ7YLoKCSh7--1" value="Backend get generated files over REST API and send it over to frontend" style="rounded=1;whiteSpace=wrap;html=1;fillColor=#d5e8d4;strokeColor=#82b366;" parent="1" vertex="1">
          <mxGeometry x="640" y="450" width="320" height="40" as="geometry" />
        </mxCell>
        <mxCell id="sLVnJPyWkDUqHxuiRs0E-4" style="edgeStyle=orthogonalEdgeStyle;rounded=0;orthogonalLoop=1;jettySize=auto;html=1;exitX=0.5;exitY=1;exitDx=0;exitDy=0;entryX=0.5;entryY=0;entryDx=0;entryDy=0;" edge="1" parent="1" source="gs30xLeirJ7YLoKCSh7--2" target="gs30xLeirJ7YLoKCSh7--1">
          <mxGeometry relative="1" as="geometry" />
        </mxCell>
        <mxCell id="gs30xLeirJ7YLoKCSh7--2" value="Compile Engine" style="rounded=1;whiteSpace=wrap;html=1;verticalAlign=top;fillColor=#dae8fc;strokeColor=#6c8ebf;" parent="1" vertex="1">
          <mxGeometry x="500" y="-70" width="600" height="490" as="geometry" />
        </mxCell>
        <mxCell id="gs30xLeirJ7YLoKCSh7--32" style="edgeStyle=orthogonalEdgeStyle;rounded=0;orthogonalLoop=1;jettySize=auto;html=1;exitX=0.5;exitY=1;exitDx=0;exitDy=0;entryX=0.5;entryY=0;entryDx=0;entryDy=0;" parent="1" source="gs30xLeirJ7YLoKCSh7--3" target="gs30xLeirJ7YLoKCSh7--24" edge="1">
          <mxGeometry relative="1" as="geometry" />
        </mxCell>
        <mxCell id="gs30xLeirJ7YLoKCSh7--3" value="Compile Firmware with arduino-cli" style="rounded=1;whiteSpace=wrap;html=1;fillColor=#ffe6cc;strokeColor=#d79b00;" parent="1" vertex="1">
          <mxGeometry x="527.5" y="280" width="382.5" height="40" as="geometry" />
        </mxCell>
        <mxCell id="sLVnJPyWkDUqHxuiRs0E-7" style="edgeStyle=orthogonalEdgeStyle;rounded=0;orthogonalLoop=1;jettySize=auto;html=1;exitX=1;exitY=0.5;exitDx=0;exitDy=0;entryX=0;entryY=0.5;entryDx=0;entryDy=0;" edge="1" parent="1" source="gs30xLeirJ7YLoKCSh7--4" target="gs30xLeirJ7YLoKCSh7--28">
          <mxGeometry relative="1" as="geometry" />
        </mxCell>
        <mxCell id="gs30xLeirJ7YLoKCSh7--4" value="Triplestore Database&lt;br&gt;&lt;div style=&quot;text-align: left;&quot;&gt;&lt;span style=&quot;background-color: initial;&quot;&gt;- firmware url &amp;amp; version&lt;/span&gt;&lt;/div&gt;&lt;div style=&quot;text-align: left;&quot;&gt;&lt;span style=&quot;background-color: initial;&quot;&gt;- Board Type &amp;amp; Custom Settings&lt;/span&gt;&lt;/div&gt;&lt;div style=&quot;text-align: left;&quot;&gt;&lt;span style=&quot;background-color: initial;&quot;&gt;- Libraries Needed&lt;/span&gt;&lt;/div&gt;&lt;div style=&quot;text-align: left;&quot;&gt;&lt;span style=&quot;background-color: initial;&quot;&gt;- Customization Information&lt;/span&gt;&lt;/div&gt;&lt;div style=&quot;text-align: left;&quot;&gt;&lt;span style=&quot;background-color: initial;&quot;&gt;- Gitlab API key&lt;/span&gt;&lt;/div&gt;" style="rounded=1;whiteSpace=wrap;html=1;fillColor=#d5e8d4;strokeColor=#82b366;" parent="1" vertex="1">
          <mxGeometry x="310" y="-200" width="230" height="100" as="geometry" />
        </mxCell>
        <mxCell id="gs30xLeirJ7YLoKCSh7--23" style="edgeStyle=orthogonalEdgeStyle;rounded=0;orthogonalLoop=1;jettySize=auto;html=1;exitX=0.5;exitY=1;exitDx=0;exitDy=0;entryX=0.5;entryY=0;entryDx=0;entryDy=0;" parent="1" source="gs30xLeirJ7YLoKCSh7--7" target="gs30xLeirJ7YLoKCSh7--3" edge="1">
          <mxGeometry relative="1" as="geometry" />
        </mxCell>
        <mxCell id="gs30xLeirJ7YLoKCSh7--7" value="Generate config.h file with customization information" style="rounded=1;whiteSpace=wrap;html=1;fillColor=#ffe6cc;strokeColor=#d79b00;" parent="1" vertex="1">
          <mxGeometry x="626.25" y="200" width="185" height="40" as="geometry" />
        </mxCell>
        <mxCell id="gs30xLeirJ7YLoKCSh7--22" style="edgeStyle=orthogonalEdgeStyle;rounded=0;orthogonalLoop=1;jettySize=auto;html=1;exitX=0.5;exitY=1;exitDx=0;exitDy=0;entryX=0.768;entryY=0.004;entryDx=0;entryDy=0;entryPerimeter=0;" parent="1" source="gs30xLeirJ7YLoKCSh7--8" target="gs30xLeirJ7YLoKCSh7--3" edge="1">
          <mxGeometry relative="1" as="geometry" />
        </mxCell>
        <mxCell id="gs30xLeirJ7YLoKCSh7--8" value="Prepare Building environment:&lt;br&gt;&lt;div style=&quot;text-align: left;&quot;&gt;&lt;span style=&quot;background-color: initial;&quot;&gt;- install new boards&lt;/span&gt;&lt;/div&gt;&lt;div style=&quot;text-align: left;&quot;&gt;&lt;span style=&quot;background-color: initial;&quot;&gt;- install new libraries&lt;/span&gt;&lt;/div&gt;" style="rounded=1;whiteSpace=wrap;html=1;fillColor=#ffe6cc;strokeColor=#d79b00;" parent="1" vertex="1">
          <mxGeometry x="730" y="110" width="182.5" height="50" as="geometry" />
        </mxCell>
        <mxCell id="gs30xLeirJ7YLoKCSh7--21" style="edgeStyle=orthogonalEdgeStyle;rounded=0;orthogonalLoop=1;jettySize=auto;html=1;exitX=0.5;exitY=1;exitDx=0;exitDy=0;entryX=0.239;entryY=-0.039;entryDx=0;entryDy=0;entryPerimeter=0;" parent="1" source="gs30xLeirJ7YLoKCSh7--9" target="gs30xLeirJ7YLoKCSh7--3" edge="1">
          <mxGeometry relative="1" as="geometry" />
        </mxCell>
        <mxCell id="gs30xLeirJ7YLoKCSh7--9" value="Download Source code" style="rounded=1;whiteSpace=wrap;html=1;fillColor=#ffe6cc;strokeColor=#d79b00;" parent="1" vertex="1">
          <mxGeometry x="527.5" y="110" width="182.5" height="50" as="geometry" />
        </mxCell>
        <mxCell id="gs30xLeirJ7YLoKCSh7--16" style="edgeStyle=orthogonalEdgeStyle;rounded=0;orthogonalLoop=1;jettySize=auto;html=1;exitX=0.25;exitY=1;exitDx=0;exitDy=0;entryX=0.5;entryY=0;entryDx=0;entryDy=0;" parent="1" source="gs30xLeirJ7YLoKCSh7--11" target="gs30xLeirJ7YLoKCSh7--9" edge="1">
          <mxGeometry relative="1" as="geometry" />
        </mxCell>
        <mxCell id="gs30xLeirJ7YLoKCSh7--18" style="edgeStyle=orthogonalEdgeStyle;rounded=0;orthogonalLoop=1;jettySize=auto;html=1;exitX=0.75;exitY=1;exitDx=0;exitDy=0;entryX=0.5;entryY=0;entryDx=0;entryDy=0;" parent="1" source="gs30xLeirJ7YLoKCSh7--11" target="gs30xLeirJ7YLoKCSh7--8" edge="1">
          <mxGeometry relative="1" as="geometry" />
        </mxCell>
        <mxCell id="gs30xLeirJ7YLoKCSh7--20" style="edgeStyle=orthogonalEdgeStyle;rounded=0;orthogonalLoop=1;jettySize=auto;html=1;exitX=0.5;exitY=1;exitDx=0;exitDy=0;entryX=0.5;entryY=0;entryDx=0;entryDy=0;" parent="1" source="gs30xLeirJ7YLoKCSh7--11" target="gs30xLeirJ7YLoKCSh7--7" edge="1">
          <mxGeometry relative="1" as="geometry" />
        </mxCell>
        <mxCell id="gs30xLeirJ7YLoKCSh7--11" value="Get informations from DB" style="rounded=1;whiteSpace=wrap;html=1;fillColor=#ffe6cc;strokeColor=#d79b00;" parent="1" vertex="1">
          <mxGeometry x="527.5" y="23.5" width="382.5" height="50" as="geometry" />
        </mxCell>
        <mxCell id="gs30xLeirJ7YLoKCSh7--24" value="Make generated files available over REST endpoint" style="rounded=1;whiteSpace=wrap;html=1;fillColor=#ffe6cc;strokeColor=#d79b00;" parent="1" vertex="1">
          <mxGeometry x="530" y="350" width="380" height="37" as="geometry" />
        </mxCell>
        <mxCell id="gs30xLeirJ7YLoKCSh7--30" style="edgeStyle=orthogonalEdgeStyle;rounded=0;orthogonalLoop=1;jettySize=auto;html=1;exitX=1;exitY=0.5;exitDx=0;exitDy=0;entryX=0;entryY=0.5;entryDx=0;entryDy=0;" parent="1" source="gs30xLeirJ7YLoKCSh7--25" target="gs30xLeirJ7YLoKCSh7--9" edge="1">
          <mxGeometry relative="1" as="geometry" />
        </mxCell>
        <mxCell id="gs30xLeirJ7YLoKCSh7--25" value="Gitlab Repository" style="rounded=1;whiteSpace=wrap;html=1;fillColor=#d5e8d4;strokeColor=#82b366;" parent="1" vertex="1">
          <mxGeometry x="310" y="110" width="120" height="50" as="geometry" />
        </mxCell>
        <mxCell id="gs30xLeirJ7YLoKCSh7--29" style="edgeStyle=orthogonalEdgeStyle;rounded=0;orthogonalLoop=1;jettySize=auto;html=1;exitX=0.5;exitY=1;exitDx=0;exitDy=0;entryX=0.5;entryY=0;entryDx=0;entryDy=0;" parent="1" source="gs30xLeirJ7YLoKCSh7--28" target="gs30xLeirJ7YLoKCSh7--2" edge="1">
          <mxGeometry relative="1" as="geometry" />
        </mxCell>
        <mxCell id="gs30xLeirJ7YLoKCSh7--28" value="Backend Trigger new Firmware compilation for a given sensor node with all needed data" style="rounded=1;whiteSpace=wrap;html=1;fillColor=#d5e8d4;strokeColor=#82b366;" parent="1" vertex="1">
          <mxGeometry x="700" y="-180" width="200" height="60" as="geometry" />
        </mxCell>
        <mxCell id="sLVnJPyWkDUqHxuiRs0E-2" value="Webserver for REST API" style="rounded=1;whiteSpace=wrap;html=1;fillColor=#ffe6cc;strokeColor=#d79b00;" vertex="1" parent="1">
          <mxGeometry x="930" y="23.5" width="160" height="146.5" as="geometry" />
        </mxCell>
        <mxCell id="sLVnJPyWkDUqHxuiRs0E-3" value="Cronjob that purge generated data from old jobs" style="rounded=1;whiteSpace=wrap;html=1;fillColor=#ffe6cc;strokeColor=#d79b00;" vertex="1" parent="1">
          <mxGeometry x="930" y="237" width="160" height="150" as="geometry" />
        </mxCell>
      </root>
    </mxGraphModel>
  </diagram>
</mxfile>
